<svg xmlns="http://www.w3.org/2000/svg" viewBox="86.21000183105468 137.88253193391841 402.5899963378906 309.6874682949634"> <svg xmlns="http://www.w3.org/2000/svg" xmlns:xlink="http://www.w3.org/1999/xlink" version="1.1" id="Layer_1" x="219.5006103515625" y="207.88253193391841" viewBox="84.63518524169922 135.08642578125 830.7291259765625 729.8267822265625" enable-background="new 0 0 1000 1000" xml:space="preserve" height="119.4774648617359" width="135.995849609375" preserveAspectRatio="xMinYMin" style="overflow: visible;"><path fill-rule="evenodd" clip-rule="evenodd" fill="#3387A3" d="M507.018,468.4c39.563,0,71.646,32.084,71.646,71.646   c0,39.566-32.083,71.649-71.646,71.649c-39.565,0-71.651-32.083-71.651-71.649C435.367,500.484,467.452,468.4,507.018,468.4    M697.742,567.898C649.776,488.007,575.713,421.1,494.557,421.741c-68.186-0.533-131.362,46.619-178.267,109.083   c49.241,75.361,122.72,123.2,204.789,123.2C588.725,654.023,650.533,621.521,697.742,567.898z" style="fill: #3387A3;"></path><path fill-rule="evenodd" clip-rule="evenodd" fill="#4ABAC7" d="M589.336,864.379c28.481-0.051,49.592-0.136,55.563-0.25   c74.669-1.452,106.154-52.152,108.617-115.734c0.983-25.404-3.681-54.758-12.977-85.228   c-59.189,21.067-111.576,61.239-153.108,118.604C572.406,802.518,536.296,863.444,589.336,864.379" style="fill: #4ABAC7;"></path><path fill-rule="evenodd" clip-rule="evenodd" fill="#3387A3" d="M235.598,748.395c2.464,63.582,33.948,114.282,108.618,115.734   c2.005,0.33,6.993,0.515,14.288,0.592c55.509,3.615,50.656-44.611,38.828-72.927C367.243,718.467,321.62,657.5,266.17,616.296   C245.441,662.848,234.116,710.105,235.598,748.395" style="fill: #3387A3;"></path><path fill-rule="evenodd" clip-rule="evenodd" fill="#4ABAC7" d="M134.323,347.412c-45.353,13.174-62.843,73.465-39.071,134.63   c23.773,61.171,79.831,100.088,125.183,86.913c45.349-13.178,62.849-73.47,39.074-134.638   C235.733,373.15,179.675,334.232,134.323,347.412" style="fill: #4ABAC7;"></path><path fill-rule="evenodd" clip-rule="evenodd" fill="#4ABAC7" d="M865.678,347.409c45.35,13.177,62.844,73.468,39.067,134.633   c-23.774,61.171-79.833,100.088-125.182,86.913c-45.352-13.175-62.85-73.47-39.071-134.638   C764.267,373.15,820.325,334.232,865.678,347.409" style="fill: #4ABAC7;"></path><path fill-rule="evenodd" clip-rule="evenodd" fill="#4ABAC7" d="M353.584,135.383c-50.325,4.775-84.418,65.909-76.139,136.514   c8.284,70.61,55.808,123.998,106.132,119.226c50.327-4.776,84.423-65.909,76.141-136.514   C451.435,183.998,403.909,130.611,353.584,135.383" style="fill: #4ABAC7;"></path><path fill-rule="evenodd" clip-rule="evenodd" fill="#4ABAC7" d="M651.096,135.383c50.325,4.775,84.421,65.909,76.14,136.514   c-8.283,70.607-55.811,123.998-106.131,119.226c-50.328-4.776-84.424-65.909-76.143-136.514   C553.242,184.003,600.77,130.611,651.096,135.383" style="fill: #4ABAC7;"></path></svg> <svg y="341.7099996185303" viewBox="0.1899999976158142 9.920000076293945 262.5899963378906 35.86000061035156" x="156.21000183105468" height="35.86000061035156" width="262.5899963378906" style="overflow: visible;"><g fill="#3387A3" fill-opacity="1" style=""><path d="M16.12 45.50L11.47 45.50L11.47 16.69L0.19 16.69L0.19 12.60L27.40 12.60L27.40 16.69L16.12 16.69L16.12 45.50ZM36.38 45.50L31.87 45.50L31.87 20.59L36.38 20.59L36.38 45.50ZM34.12 15.79L34.12 15.79Q32.81 15.79 31.94 14.95Q31.07 14.10 31.07 12.88L31.07 12.88Q31.07 11.61 31.94 10.76Q32.81 9.92 34.12 9.92L34.12 9.92Q35.44 9.92 36.31 10.74Q37.18 11.56 37.18 12.78L37.18 12.78Q37.18 14.05 36.33 14.92Q35.48 15.79 34.12 15.79ZM49.49 45.50L44.98 45.50L44.98 20.59L49.30 20.59L49.30 27.35L48.88 25.66Q49.91 23.08 52.36 21.71Q54.80 20.35 58.37 20.35L58.37 20.35L58.37 24.72Q58.09 24.68 57.83 24.68Q57.58 24.68 57.34 24.68L57.34 24.68Q53.72 24.68 51.61 26.84Q49.49 29.00 49.49 33.09L49.49 33.09L49.49 45.50ZM68.76 45.50L64.25 45.50L64.25 20.59L68.76 20.59L68.76 45.50ZM66.50 15.79L66.50 15.79Q65.19 15.79 64.32 14.95Q63.45 14.10 63.45 12.88L63.45 12.88Q63.45 11.61 64.32 10.76Q65.19 9.92 66.50 9.92L66.50 9.92Q67.82 9.92 68.69 10.74Q69.56 11.56 69.56 12.78L69.56 12.78Q69.56 14.05 68.71 14.92Q67.87 15.79 66.50 15.79ZM92.17 45.50L87.51 45.50L73.04 12.60L78.11 12.60L91.41 42.96L88.50 42.96L101.90 12.60L106.60 12.60L92.17 45.50ZM121.92 45.78L121.92 45.78Q117.92 45.78 114.89 44.13Q111.86 42.49 110.19 39.62Q108.52 36.75 108.52 33.04L108.52 33.04Q108.52 29.33 110.14 26.46Q111.77 23.59 114.61 21.97Q117.45 20.35 121.02 20.35L121.02 20.35Q124.64 20.35 127.42 21.95Q130.19 23.55 131.76 26.44Q133.34 29.33 133.34 33.18L133.34 33.18Q133.34 33.46 133.32 33.84Q133.29 34.22 133.25 34.55L133.25 34.55L112.05 34.55L112.05 31.30L130.89 31.30L129.06 32.43Q129.11 30.03 128.07 28.15Q127.04 26.27 125.23 25.22Q123.42 24.16 121.02 24.16L121.02 24.16Q118.67 24.16 116.84 25.22Q115.01 26.27 113.97 28.18Q112.94 30.08 112.94 32.52L112.94 32.52L112.94 33.28Q112.94 35.77 114.09 37.72Q115.24 39.67 117.31 40.75Q119.38 41.83 122.06 41.83L122.06 41.83Q124.27 41.83 126.08 41.08Q127.89 40.33 129.25 38.82L129.25 38.82L131.74 41.74Q130.05 43.71 127.53 44.74Q125.02 45.78 121.92 45.78ZM144.10 45.50L139.59 45.50L139.59 10.62L144.10 10.62L144.10 45.50ZM163.37 45.78L163.37 45.78Q159.61 45.78 156.70 44.13Q153.78 42.49 152.09 39.60Q150.40 36.71 150.40 33.04L150.40 33.04Q150.40 29.33 152.09 26.46Q153.78 23.59 156.70 21.97Q159.61 20.35 163.37 20.35L163.37 20.35Q167.08 20.35 170.02 21.97Q172.96 23.59 174.63 26.44Q176.30 29.28 176.30 33.04L176.30 33.04Q176.30 36.75 174.63 39.62Q172.96 42.49 170.02 44.13Q167.08 45.78 163.37 45.78ZM163.37 41.83L163.37 41.83Q165.77 41.83 167.67 40.75Q169.58 39.67 170.66 37.67Q171.74 35.67 171.74 33.04L171.74 33.04Q171.74 30.36 170.66 28.41Q169.58 26.46 167.67 25.38Q165.77 24.30 163.37 24.30L163.37 24.30Q160.97 24.30 159.09 25.38Q157.21 26.46 156.09 28.41Q154.96 30.36 154.96 33.04L154.96 33.04Q154.96 35.67 156.09 37.67Q157.21 39.67 159.09 40.75Q160.97 41.83 163.37 41.83ZM200.55 45.50L195.85 45.50L195.85 12.60L200.55 12.60L200.55 45.50ZM214.27 45.50L209.76 45.50L209.76 20.59L214.08 20.59L214.08 27.31L213.38 25.52Q214.60 23.08 217.14 21.71Q219.68 20.35 223.06 20.35L223.06 20.35Q226.12 20.35 228.44 21.53Q230.77 22.70 232.09 25.10Q233.40 27.50 233.40 31.16L233.40 31.16L233.40 45.50L228.89 45.50L228.89 31.68Q228.89 28.06 227.13 26.23Q225.36 24.39 222.17 24.39L222.17 24.39Q219.77 24.39 217.99 25.33Q216.20 26.27 215.24 28.11Q214.27 29.94 214.27 32.67L214.27 32.67L214.27 45.50ZM252.63 45.78L252.63 45.78Q248.82 45.78 245.83 44.13Q242.85 42.49 241.16 39.62Q239.46 36.75 239.46 33.04L239.46 33.04Q239.46 29.33 241.16 26.46Q242.85 23.59 245.83 21.97Q248.82 20.35 252.63 20.35L252.63 20.35Q256.01 20.35 258.66 21.69Q261.32 23.03 262.78 25.66L262.78 25.66L259.35 27.87Q258.12 26.04 256.36 25.17Q254.60 24.30 252.58 24.30L252.58 24.30Q250.13 24.30 248.21 25.38Q246.28 26.46 245.15 28.41Q244.02 30.36 244.02 33.04L244.02 33.04Q244.02 35.72 245.15 37.69Q246.28 39.67 248.21 40.75Q250.13 41.83 252.58 41.83L252.58 41.83Q254.60 41.83 256.36 40.96Q258.12 40.09 259.35 38.26L259.35 38.26L262.78 40.42Q261.32 43.01 258.66 44.39Q256.01 45.78 252.63 45.78Z" transform="translate(0, 0)"></path></g></svg></svg>